<?xml version="1.0" encoding="UTF-8"?>
<svg width="205px" height="93px" viewBox="0 0 205 93" version="1.1" xmlns="http://www.w3.org/2000/svg" xmlns:xlink="http://www.w3.org/1999/xlink">
    <!-- Generator: sketchtool 55.1 (78136) - https://sketchapp.com -->
    <title>3D9E7E79-0400-4BB7-BF9F-29C893AC8DD5</title>
    <desc>Created with sketchtool.</desc>
    <g id="Page-1" stroke="none" stroke-width="1" fill="none" fill-rule="evenodd">
        <g id="02.-503-Service-Unavailable" transform="translate(-619.000000, -424.000000)">
            <g id="Group-3" transform="translate(290.000000, 248.000000)">
                <g id="Group-2" transform="translate(272.000000, 80.000000)">
                    <g id="Group-55" transform="translate(59.000000, 72.000000)">
                        <rect id="Rectangle" fill="#F2F2F2" opacity="0" x="1" y="0" width="200" height="140"></rect>
                        <g id="Group-46-Copy" transform="translate(0.000000, 24.000000)">
                            <path d="M163.437547,92.1982759 C162.805216,92.1982759 162.267744,91.9951744 161.825113,91.5889655 C161.382482,91.1827566 161.16117,90.6895103 161.16117,90.1092118 L161.16117,78.9675369 L131.094027,78.9675369 C130.461697,78.9675369 129.924225,78.7644355 129.481594,78.3582266 C129.038963,77.9520177 128.81765,77.4587714 128.81765,76.8784729 L128.81765,70.8724138 C128.81765,69.9439362 129.165427,69.0735016 129.86099,68.2610837 L157.841454,32.7469951 C158.157619,32.2827563 158.631859,31.9200752 159.264189,31.6589409 C159.896519,31.3978066 160.592072,31.2672414 161.350868,31.2672414 L171.784261,31.2672414 C172.479824,31.2672414 173.033105,31.4558356 173.444119,31.8330296 C173.855134,32.2102236 174.060638,32.7179771 174.060638,33.3563054 L174.060638,68.6092611 L182.597051,68.6092611 C183.292614,68.6092611 183.845894,68.7978553 184.256909,69.1750493 C184.667923,69.5522433 184.873427,70.0599968 184.873427,70.6983251 L184.873427,76.8784729 C184.873427,77.4587714 184.667923,77.9520177 184.256909,78.3582266 C183.845894,78.7644355 183.292614,78.9675369 182.597051,78.9675369 L174.060638,78.9675369 L174.060638,90.1092118 C174.060638,90.6895103 173.855134,91.1827566 173.444119,91.5889655 C173.033105,91.9951744 172.479824,92.1982759 171.784261,92.1982759 L163.437547,92.1982759 Z M142.094019,69.1798851 L161.270995,69.1798851 L161.270995,44.1304598 L142.094019,69.1798851 Z" id="Combined-Shape-Copy-8" fill="#8F8F8F"></path>
                            <g id="Group-41" transform="translate(0.000000, 2.405172)">
                                <path d="M44.7778884,10.0215517 L0,10.0215517" id="Path-36-Copy" stroke="#C9C9C9" stroke-width="3.2" stroke-linecap="round"></path>
                                <g id="Group-36-Copy" transform="translate(43.760209, 0.000000)">
                                    <path d="M10.0215517,0 L26.1512737,0 L26.1512737,20.0431034 L10.0215517,20.0431034 C4.48680154,20.0431034 6.7781141e-16,15.5563019 0,10.0215517 C-6.7781141e-16,4.48680154 4.48680154,-7.59639724e-16 10.0215517,0 Z" id="Rectangle" fill="#8F8F8F"></path>
                                    <rect id="Rectangle" fill="#D8D8D8" x="12.2584095" y="0" width="29.4201829" height="20.0431034" rx="6.4"></rect>
                                    <rect id="Rectangle" fill="#727272" x="32.6890921" y="7.70888594" width="21.2479099" height="4.62533156" rx="2.31266578"></rect>
                                    <rect id="Rectangle-Copy-26" fill="#8F8F8F" x="15.5273188" y="7.70888594" width="21.2479099" height="4.62533156" rx="2.31266578"></rect>
                                </g>
                            </g>
                            <path d="M47.3220087,92.1982759 C46.6896786,92.1982759 46.1522062,91.9951744 45.7095751,91.5889655 C45.2669441,91.1827566 45.0456319,90.6895103 45.0456319,90.1092118 L45.0456319,78.9675369 L14.9784893,78.9675369 C14.3461593,78.9675369 13.8086868,78.7644355 13.3660558,78.3582266 C12.9234248,77.9520177 12.7021126,77.4587714 12.7021126,76.8784729 L12.7021126,70.8724138 C12.7021126,69.9439362 13.0498889,69.0735016 13.7454519,68.2610837 L41.7259159,32.7469951 C42.0420809,32.2827563 42.5163213,31.9200752 43.1486513,31.6589409 C43.7809814,31.3978066 44.476534,31.2672414 45.23533,31.2672414 L55.6687233,31.2672414 C56.3642863,31.2672414 56.9175668,31.4558356 57.3285813,31.8330296 C57.7395959,32.2102236 57.9451,32.7179771 57.9451,33.3563054 L57.9451,68.6092611 L66.4815128,68.6092611 C67.1770758,68.6092611 67.7303563,68.7978553 68.1413708,69.1750493 C68.5523853,69.5522433 68.7578895,70.0599968 68.7578895,70.6983251 L68.7578895,76.8784729 C68.7578895,77.4587714 68.5523853,77.9520177 68.1413708,78.3582266 C67.7303563,78.7644355 67.1770758,78.9675369 66.4815128,78.9675369 L57.9451,78.9675369 L57.9451,90.1092118 C57.9451,90.6895103 57.7395959,91.1827566 57.3285813,91.5889655 C56.9175668,91.9951744 56.3642863,92.1982759 55.6687233,92.1982759 L47.3220087,92.1982759 Z M25.9784808,69.1798851 L45.1554571,69.1798851 L45.1554571,44.1304598 L25.9784808,69.1798851 Z" id="Combined-Shape-Copy-3" fill="#8F8F8F"></path>
                            <path d="" id="Path-35-Copy" stroke="#979797" stroke-width="0.8"></path>
                            <g id="Group-42" transform="translate(113.713147, 0.000000)">
                                <path d="M42.6284629,11.6918103 L87.2868526,11.6918103" id="Path-37-Copy" stroke="#C9C9C9" stroke-width="3.2" stroke-linecap="round"></path>
                                <g id="Group-34-Copy">
                                    <rect id="Rectangle" fill="#8F8F8F" x="13.865125" y="0" width="31.8082281" height="22.4482759" rx="11.2241379"></rect>
                                    <rect id="Rectangle" fill="#D8D8D8" x="0" y="0" width="34.2550148" height="22.4482759" rx="6.4"></rect>
                                    <ellipse id="Oval" fill="#8F8F8F" cx="24.0600699" cy="10.85" rx="2.85458457" ry="2.61896552"></ellipse>
                                    <ellipse id="Oval-Copy-11" fill="#8F8F8F" cx="11.0105405" cy="10.85" rx="2.85458457" ry="2.61896552"></ellipse>
                                </g>
                            </g>
                            <path d="M99.5399097,93 C91.00783,93 84.6566198,90.8301702 80.4860883,86.4904454 C76.3155568,82.1507206 74.0393085,76.4622478 73.6572751,69.4248563 C73.5936029,67.8414432 73.5617672,65.143817 73.5617672,61.3318966 C73.5617672,57.4613312 73.5936029,54.7050609 73.6572751,53.0630029 C73.9756363,46.1429012 76.2678024,40.5130725 80.5338422,36.1733477 C84.799882,31.8336229 91.1351745,29.6637931 99.5399097,29.6637931 C107.944645,29.6637931 114.279937,31.8336229 118.545977,36.1733477 C122.812017,40.5130725 125.104183,46.1429012 125.422544,53.0630029 C125.549889,56.3471189 125.61356,59.1033892 125.61356,61.3318966 C125.61356,63.5604039 125.549889,66.2580301 125.422544,69.4248563 C125.040511,76.4622478 122.764263,82.1507206 118.593731,86.4904454 C114.4232,90.8301702 108.071989,93 99.5399097,93 Z M99.9594622,82.6734445 C103.952657,82.6734445 106.947508,81.492674 108.944105,79.1310974 C110.940702,76.7695209 112.003392,73.4021382 112.132204,69.0288483 C112.196611,67.3378429 112.228813,64.7430631 112.228813,61.2444312 C112.228813,57.7457993 112.196611,55.2093292 112.132204,53.6349448 C112.003392,49.378276 110.940702,46.0546255 108.944105,43.6638937 C106.947508,41.2731619 103.952657,40.0486591 99.9594622,39.9903486 C95.9662675,40.0486591 92.9714165,41.2731619 90.9748192,43.6638937 C88.9782219,46.0546255 87.9155328,49.378276 87.78672,53.6349448 C87.7223137,55.2093292 87.690111,57.7457993 87.690111,61.2444312 C87.690111,64.7430631 87.7223137,67.3378429 87.78672,69.0288483 C87.9155328,73.4021382 88.9782219,76.7695209 90.9748192,79.1310974 C92.9714165,81.492674 95.9662675,82.6734445 99.9594622,82.6734445 Z" id="Combined-Shape-Copy-9" fill="#8F8F8F"></path>
                        </g>
                    </g>
                </g>
            </g>
        </g>
    </g>
</svg>